<svg width="64" height="64" viewBox="0 0 64 64" fill="none" xmlns="http://www.w3.org/2000/svg">
<path d="M23.9761 60C23.6349 60 23.2891 59.9449 22.9479 59.8372L22.6301 59.7295C11.4805 55.6617 4 44.7969 4 32.6847C4 16.8687 16.561 4 31.9988 4C47.4413 4 60 16.8687 60 32.6847C60 44.9166 52.4237 55.815 41.1503 59.8037L40.8441 59.8947C40.5473 59.9665 40.2809 59.9976 40.0169 59.9976C38.152 59.9976 36.6353 58.4462 36.6353 56.5356V49.5015C36.6353 47.8543 36.3432 46.7051 35.7636 46.0874C35.2892 45.5822 35.1303 44.8496 35.35 44.1816C35.5673 43.5184 36.1212 43.0324 36.7942 42.9175C43.6204 41.7635 46.9412 38.2345 46.9412 32.1341C46.9412 29.285 46.1981 26.965 44.7211 25.2388C44.3566 24.8079 44.2 24.2189 44.3005 23.6611C44.7094 21.2764 44.644 19.6963 44.4524 18.9301C43.6555 19.0403 42.1271 19.5095 39.6149 21.3243C39.1943 21.6332 38.6404 21.7433 38.1263 21.6188C36.3572 21.2022 34.3288 20.9844 32.1157 20.97H31.9451C31.9194 20.97 31.8983 20.97 31.8726 20.97C29.6712 20.982 27.6451 21.2022 25.855 21.6212C25.3853 21.7289 24.8034 21.6284 24.3757 21.3124C21.728 19.4066 20.202 18.9876 19.5476 18.9038C19.3537 19.658 19.2812 21.2525 19.6972 23.6634C19.7977 24.2213 19.6458 24.7935 19.2766 25.2316C17.7996 26.9674 17.0518 29.285 17.0518 32.1317C17.0518 38.2321 20.3679 41.7611 27.1964 42.9151C27.8718 43.0276 28.428 43.5112 28.6477 44.1816C28.8673 44.8472 28.7061 45.5798 28.2247 46.0898C27.8064 46.5399 27.5353 47.2797 27.4184 48.2852C27.3343 49.0131 26.8412 49.6308 26.1588 49.8606C26.0981 49.8798 26.0373 49.9013 25.9742 49.9181C26.2313 49.9851 26.4743 50.1096 26.6823 50.2844C27.11 50.6363 27.36 51.1726 27.36 51.7472V56.4039C27.3623 58.4462 25.8433 60 23.9761 60ZM31.9988 5.89619C17.5823 5.89619 5.85319 17.9126 5.85319 32.6847C5.85319 43.9973 12.8406 54.1438 23.24 57.9362L23.5204 58.0344C23.6606 58.0799 23.8219 58.1038 23.9785 58.1038C24.8244 58.1038 25.5115 57.3999 25.5115 56.5356V51.752C24.6585 51.9388 23.3802 52.1543 22.1837 52.1543C21.2372 52.1543 20.4871 52.0178 19.9566 51.7544C18.2086 50.8973 17.3159 49.8295 16.4138 47.5335C15.9955 46.4633 15.3014 45.5631 14.2942 44.7826L11.3567 42.5033L14.9976 43.0899C15.7408 43.2096 16.3647 43.5472 16.8017 44.0643C17.0892 44.4019 17.3977 44.8376 17.7225 45.3045C18.8349 46.8942 20.2487 48.8742 22.5763 48.6468C23.7915 48.5175 24.8057 48.3188 25.5886 48.0626C25.7452 46.6452 26.1869 45.5367 26.8926 44.7802C19.2462 43.4969 15.2033 39.1179 15.2033 32.1341C15.2033 28.8157 16.1053 26.0768 17.8814 23.9891C17.6243 22.5358 17.1499 18.9756 18.1782 17.429L18.3932 17.1058L18.7671 17.0316C18.8816 17.01 19.0499 16.9861 19.2789 16.9861C20.3328 16.9861 22.2608 17.4673 25.4507 19.7681C27.367 19.3156 29.5287 19.081 31.8726 19.069L32.9219 18.9206L32.9243 19.081C35.0205 19.1432 36.883 19.3755 38.5516 19.7681C41.7298 17.4721 43.6812 16.9909 44.7608 16.9909C44.9548 16.9909 45.0974 17.0076 45.1908 17.022L45.5858 17.0818L45.8148 17.4218C46.8477 18.9613 46.3733 22.531 46.1209 23.9962C47.8947 26.072 48.7944 28.8109 48.7944 32.1317C48.7944 39.1155 44.7538 43.4945 37.1004 44.7873C38.4885 46.255 38.4885 48.6994 38.4885 49.5015V56.5356C38.4885 57.522 39.4046 58.3001 40.3908 58.0583L40.5707 58.0032C51.0752 54.2875 58.1491 44.1098 58.1491 32.6871C58.1468 17.9126 46.4154 5.89619 31.9988 5.89619Z" fill="black"/>
</svg>
