<svg width="64" height="64" viewBox="0 0 64 64" fill="none" xmlns="http://www.w3.org/2000/svg">
<path d="M60 60H43.2439V40.2752C43.2439 35.6035 41.7876 35.6035 41.1635 35.6035C38.6833 35.6035 38.4121 38.931 38.4121 40.3603V60H23.3204V23.4818H38.3022C40.1232 22.3369 42.5894 21.7025 45.3291 21.7025C47.0823 21.7025 51.5051 22.0379 54.7146 25.1516C58.1252 28.4549 60 33.5617 60 39.529V60ZM45.0556 58.1138H58.1883V39.529C58.1883 34.0916 56.5146 29.4733 53.478 26.5298C50.7384 23.8731 46.8649 23.5863 45.3291 23.5863C42.2598 23.5863 39.6347 24.4516 38.1386 25.9635L36.6051 27.5142V25.3655L25.1321 25.4093V58.1138H36.6051V40.3578C36.6051 36.199 38.3092 33.7173 41.1635 33.7173C43.7816 33.7173 45.0556 35.8611 45.0556 40.2728V58.1138V58.1138ZM20.7537 60H4V23.4818H20.7537V60ZM5.81165 58.1138H18.9421V25.3655L5.81165 25.4093V58.1138ZM12.3757 21.423C7.75655 21.423 4 17.5145 4 12.7091C4 7.90607 7.75655 4 12.3757 4C16.9948 4 20.7514 7.90607 20.7514 12.7091C20.7537 17.5145 16.9972 21.423 12.3757 21.423ZM12.3757 5.88376C8.75472 5.88376 5.80932 8.9464 5.80932 12.7091C5.80932 16.4742 8.75472 19.5392 12.3757 19.5392C15.9967 19.5392 18.9421 16.4766 18.9421 12.7091C18.9421 8.9464 15.9967 5.88376 12.3757 5.88376Z" fill="black"/>
</svg>
