<svg width="64" height="64" viewBox="0 0 64 64" fill="none" xmlns="http://www.w3.org/2000/svg">
<path d="M24.4839 53C19.3887 53 14.3428 51.6165 9.8877 49.0057L4 45.5446L10.8655 45.6595C10.9991 45.6687 11.175 45.6756 11.447 45.6756C12.481 45.6756 15.7989 45.5331 19.4661 43.9496C16.6805 42.5914 14.5256 40.2058 13.5244 37.2917L12.4412 34.1385L12.4904 34.1477C11.1328 32.3551 10.3238 30.1947 10.1972 27.9241L10.0378 25.0054L11.189 25.4972C10.1058 23.0749 9.39296 19.4046 11.7424 15.2057L13.0953 12.8018L14.8047 14.9736C18.697 19.9056 24.4581 23.068 30.7327 23.7505C30.742 18.29 34.9837 12.6501 42.0743 12.6501C44.8622 12.6501 47.6032 13.6866 49.669 15.5114C51.9668 14.8886 54.0724 13.6338 54.0982 13.62L58.4407 11L56.7994 15.7343C56.6728 16.0929 56.5298 16.4468 56.368 16.7869L60 15.0472L57.8123 19.6551C56.8791 21.6247 55.3386 23.3116 53.4511 24.4492C53.7113 31.0979 50.8484 38.4844 45.8962 43.8577C42.0954 47.9899 35.3237 52.9288 24.6597 52.9954L24.4839 53ZM10.5325 47.374L10.7928 47.5256C14.9688 49.9778 19.7029 51.2763 24.4768 51.2763H24.648C34.6719 51.212 41.0262 46.5811 44.5949 42.7063C49.3735 37.5192 52.0817 30.3625 51.6714 24.0263L51.6339 23.4793L52.1239 23.2173C53.9107 22.259 55.3644 20.7376 56.2226 18.9335L56.3164 18.7289L55.8263 18.9679C55.3199 19.184 54.8697 19.3517 54.4054 19.4988L51.526 20.4227L53.4534 18.1337C54.1944 17.2512 54.7618 16.2606 55.1346 15.1828L55.205 14.9759L55.0174 15.0885C54.9963 15.1023 52.3912 16.6674 49.6197 17.304L49.1508 17.412L48.8038 17.0788C47.0288 15.3597 44.5761 14.3715 42.0766 14.3715C36.074 14.3715 32.4912 19.1472 32.4912 23.7666C32.4912 23.8792 32.5194 24.2309 32.5592 24.6147L32.6577 25.6259L31.626 25.5592C24.4628 25.0858 17.8271 21.6109 13.4166 16.0285L13.3415 15.932L13.2829 16.0377C10.4692 21.057 12.7952 25.203 13.923 26.7543L15.4589 28.8618L12.9429 28.0735C12.6451 27.9816 12.352 27.8689 12.066 27.7471L11.9417 27.6943L11.9488 27.8276C12.1082 30.6843 13.5362 33.3295 15.8645 35.0808L19.3019 37.6686L15.1423 36.6022L15.1916 36.7424C16.2256 39.7622 18.7228 42.111 21.8671 43.0303L23.8461 43.6095L22.0477 44.6046C17.3698 47.1924 12.753 47.3946 11.4493 47.3946C11.1375 47.3946 10.9358 47.3877 10.8139 47.3831L10.5325 47.374Z" fill="black"/>
</svg>
