<svg xmlns="http://www.w3.org/2000/svg" height="512" width="512" xmlns:v="https://vecta.io/nano"><path d="M283.693 492.847H229.26c-14.972 0-27.153-12.177-27.153-27.144v-53.9c-19.27-6.774-37.417-17.27-52.977-30.643l-46.764 27a27.13 27.13 0 0 1-13.503 3.606c-9.703 0-18.727-5.173-23.55-13.5l-27.237-47.184c-7.457-12.935-3.004-29.55 9.925-37.04l46.74-26.958a165 165 0 0 1-2.867-30.6 164.95 164.95 0 0 1 2.867-30.6l-46.73-26.95c-12.97-7.514-17.42-24.156-9.93-37.104L65.3 114.7c4.835-8.347 13.86-13.527 23.553-13.527 4.743 0 9.417 1.257 13.517 3.635l46.754 26.946c15.576-13.353 33.724-23.837 52.974-30.604v-53.9c0-14.968 12.18-27.145 27.153-27.145h54.434c14.974 0 27.155 12.177 27.155 27.145v53.9c19.343 6.793 37.492 17.274 52.983 30.6l46.76-26.95c4.095-2.37 8.77-3.625 13.5-3.625 9.693 0 18.708 5.185 23.524 13.53l27.25 47.118c7.477 12.977 3.02 29.615-9.928 37.1L418.2 225.878c1.9 10.02 2.846 20.3 2.846 30.6 0 10.388-.953 20.66-2.84 30.603l46.726 26.948c6.236 3.572 10.72 9.4 12.6 16.398 1.898 7.03.95 14.362-2.674 20.646l-27.233 47.178c-4.827 8.335-13.847 13.508-23.544 13.5a27.18 27.18 0 0 1-13.5-3.597l-46.775-27c-15.553 13.38-33.7 23.863-52.98 30.605v53.937c-.001 14.967-12.183 27.144-27.157 27.144zM149.96 366.227a6.7 6.7 0 0 1 4.526 1.756c16.143 14.748 35.63 26.02 56.358 32.597a6.71 6.71 0 0 1 4.68 6.395v58.73c0 7.57 6.162 13.728 13.736 13.728h54.434c7.576 0 13.738-6.158 13.738-13.728V406.93a6.71 6.71 0 0 1 4.69-6.397c20.73-6.537 40.215-17.8 56.344-32.546a6.71 6.71 0 0 1 7.882-.86l50.947 29.407a13.72 13.72 0 0 0 6.807 1.809c4.927-.001 9.5-2.6 11.93-6.808l27.227-47.166c1.827-3.17 2.305-6.88 1.343-10.442-.954-3.533-3.208-6.468-6.345-8.265l-50.938-29.378a6.71 6.71 0 0 1-3.196-7.27c2.334-10.482 3.518-21.43 3.518-32.536 0-11.004-1.185-21.955-3.52-32.55a6.71 6.71 0 0 1 3.199-7.256l50.92-29.367c6.547-3.783 8.8-12.207 5.017-18.773L436 121.418c-2.432-4.213-6.992-6.826-11.907-6.826a13.6 13.6 0 0 0-6.8 1.827l-50.958 29.37a6.71 6.71 0 0 1-7.879-.864c-16.047-14.687-35.533-25.94-56.354-32.548a6.71 6.71 0 0 1-4.68-6.395V47.25c0-7.57-6.162-13.73-13.738-13.73H229.26c-7.574 0-13.736 6.16-13.736 13.73v58.73a6.71 6.71 0 0 1-4.68 6.395c-20.706 6.57-40.196 17.828-56.366 32.56a6.71 6.71 0 0 1-7.867.854l-50.948-29.363a13.55 13.55 0 0 0-6.801-1.834c-4.924 0-9.5 2.617-11.94 6.83L49.694 168.54c-3.8 6.55-1.53 14.97 5.033 18.772l50.9 29.36a6.71 6.71 0 0 1 3.2 7.256 151.42 151.42 0 0 0-3.542 32.55 151.47 151.47 0 0 0 3.542 32.55 6.71 6.71 0 0 1-3.199 7.256l-50.92 29.368c-6.53 3.782-8.786 12.184-5.018 18.72l27.23 47.172c2.428 4.2 7.003 6.8 11.936 6.8a13.69 13.69 0 0 0 6.807-1.814l50.938-29.4c1.043-.606 2.2-.9 3.35-.9zm106.53-28.463c-44.857 0-81.35-36.465-81.35-81.287s36.494-81.286 81.35-81.286c44.842 0 81.323 36.465 81.323 81.286s-36.48 81.287-81.323 81.287zm0-149.158c-37.46 0-67.934 30.446-67.934 67.87s30.475 67.87 67.934 67.87c37.444 0 67.907-30.447 67.907-67.87s-30.462-67.87-67.907-67.87z"/></svg>