<svg width="64" height="64" viewBox="0 0 64 64" fill="none" xmlns="http://www.w3.org/2000/svg">
<path d="M27 30C26.7348 30 26.4804 29.8946 26.2929 29.7071C26.1054 29.5196 26 29.2652 26 29V9C26 7.67392 25.4732 6.40215 24.5355 5.46447C23.5979 4.52678 22.3261 4 21 4H17C15.6739 4 14.4021 4.52678 13.4645 5.46447C12.5268 6.40215 12 7.67392 12 9V25C12 25.2652 11.8946 25.5196 11.7071 25.7071C11.5196 25.8946 11.2652 26 11 26C10.7348 26 10.4804 25.8946 10.2929 25.7071C10.1054 25.5196 10 25.2652 10 25V9C10 5.14 13.14 2 17 2H21C24.86 2 28 5.14 28 9V29C28 29.2652 27.8946 29.5196 27.7071 29.7071C27.5196 29.8946 27.2652 30 27 30ZM11 46C10.7348 46 10.4804 45.8946 10.2929 45.7071C10.1054 45.5196 10 45.2652 10 45V29C10 28.7348 10.1054 28.4804 10.2929 28.2929C10.4804 28.1054 10.7348 28 11 28C11.2652 28 11.5196 28.1054 11.7071 28.2929C11.8946 28.4804 12 28.7348 12 29V45C12 45.2652 11.8946 45.5196 11.7071 45.7071C11.5196 45.8946 11.2652 46 11 46Z" fill="#263238"/>
<path d="M27 46C26.7348 46 26.4804 45.8946 26.2929 45.7071C26.1054 45.5196 26 45.2652 26 45V26H11C10.7348 26 10.4804 25.8946 10.2929 25.7071C10.1054 25.5196 10 25.2652 10 25C10 24.7348 10.1054 24.4804 10.2929 24.2929C10.4804 24.1054 10.7348 24 11 24H27C27.2652 24 27.5196 24.1054 27.7071 24.2929C27.8946 24.4804 28 24.7348 28 25V45C28 45.2652 27.8946 45.5196 27.7071 45.7071C27.5196 45.8946 27.2652 46 27 46Z" fill="#263238"/>
<path d="M19 62C18.8145 62 18.6326 61.9484 18.4747 61.8509C18.3168 61.7534 18.1892 61.6139 18.106 61.448L10.106 45.448C10.0473 45.3305 10.0124 45.2025 10.0031 45.0715C9.99384 44.9404 10.0105 44.8088 10.0521 44.6842C10.0937 44.5596 10.1594 44.4444 10.2456 44.3452C10.3317 44.246 10.4365 44.1647 10.554 44.106C10.6716 44.0473 10.7995 44.0123 10.9306 44.0031C11.0616 43.9938 11.1932 44.0105 11.3178 44.0521C11.4424 44.0937 11.5576 44.1594 11.6568 44.2455C11.7561 44.3316 11.8373 44.4365 11.896 44.554L19 58.764L25.4 46H15C14.7348 46 14.4805 45.8946 14.2929 45.7071C14.1054 45.5196 14 45.2652 14 45C14 44.7348 14.1054 44.4804 14.2929 44.2929C14.4805 44.1054 14.7348 44 15 44H27C27.346 44 27.668 44.2 27.852 44.474C27.9412 44.619 27.9919 44.7844 27.9992 44.9545C28.0066 45.1246 27.9703 45.2938 27.894 45.446L19.894 61.446C19.8112 61.6123 19.6836 61.7522 19.5257 61.85C19.3678 61.9479 19.1858 61.9998 19 62ZM31 27C30.7348 27 30.4805 26.8946 30.2929 26.7071C30.1054 26.5196 30 26.2652 30 26V7C30 6.20435 29.684 5.44129 29.1213 4.87868C28.5587 4.31607 27.7957 4 27 4H18C17.7348 4 17.4805 3.89464 17.2929 3.70711C17.1054 3.51957 17 3.26522 17 3C17 2.73478 17.1054 2.48043 17.2929 2.29289C17.4805 2.10536 17.7348 2 18 2H27C28.3261 2 29.5979 2.52678 30.5356 3.46447C31.4732 4.40215 32 5.67392 32 7V26C32 26.2652 31.8947 26.5196 31.7071 26.7071C31.5196 26.8946 31.2652 27 31 27Z" fill="#263238"/>
<path d="M57 62H45C44.7348 62 44.4804 61.8946 44.2929 61.7071C44.1054 61.5196 44 61.2652 44 61C44 60.7348 44.1054 60.4804 44.2929 60.2929C44.4804 60.1054 44.7348 60 45 60H57C57.2652 60 57.5196 60.1054 57.7071 60.2929C57.8946 60.4804 58 60.7348 58 61C58 61.2652 57.8946 61.5196 57.7071 61.7071C57.5196 61.8946 57.2652 62 57 62ZM31 62H19C18.7348 62 18.4804 61.8946 18.2929 61.7071C18.1054 61.5196 18 61.2652 18 61C18 60.7348 18.1054 60.4804 18.2929 60.2929C18.4804 60.1054 18.7348 60 19 60H31C31.2652 60 31.5196 60.1054 31.7071 60.2929C31.8946 60.4804 32 60.7348 32 61C32 61.2652 31.8946 61.5196 31.7071 61.7071C31.5196 61.8946 31.2652 62 31 62Z" fill="#263238"/>
<path d="M61 62C61.5523 62 62 61.5523 62 61C62 60.4477 61.5523 60 61 60C60.4477 60 60 60.4477 60 61C60 61.5523 60.4477 62 61 62Z" fill="#263238"/>
<path d="M35 62C35.5523 62 36 61.5523 36 61C36 60.4477 35.5523 60 35 60C34.4477 60 34 60.4477 34 61C34 61.5523 34.4477 62 35 62Z" fill="#263238"/>
<path d="M53 16C52.7348 16 52.4804 15.8946 52.2929 15.7071C52.1054 15.5196 52 15.2652 52 15V9C52 7.67392 51.4732 6.40215 50.5355 5.46447C49.5979 4.52678 48.3261 4 47 4H43C41.6739 4 40.4021 4.52678 39.4645 5.46447C38.5268 6.40215 38 7.67392 38 9V11C38 11.2652 37.8946 11.5196 37.7071 11.7071C37.5196 11.8946 37.2652 12 37 12C36.7348 12 36.4804 11.8946 36.2929 11.7071C36.1054 11.5196 36 11.2652 36 11V9C36 5.14 39.14 2 43 2H47C50.86 2 54 5.14 54 9V15C54 15.2652 53.8946 15.5196 53.7071 15.7071C53.5196 15.8946 53.2652 16 53 16ZM45 62C44.8144 62 44.6325 61.9484 44.4747 61.8509C44.3168 61.7534 44.1891 61.6139 44.106 61.448L36.106 45.448C36.0473 45.3305 36.0123 45.2025 36.0031 45.0715C35.9938 44.9404 36.0105 44.8088 36.0521 44.6842C36.0937 44.5596 36.1594 44.4444 36.2455 44.3452C36.3316 44.246 36.4365 44.1647 36.554 44.106C36.6715 44.0473 36.7995 44.0123 36.9305 44.0031C37.0616 43.9938 37.1932 44.0105 37.3178 44.0521C37.4424 44.0937 37.5576 44.1594 37.6568 44.2455C37.756 44.3316 37.8373 44.4365 37.896 44.554L45.002 58.764L51.734 45.3L49 43.25L45.6 45.8C45.4269 45.9298 45.2164 46 45 46C44.7836 46 44.5731 45.9298 44.4 45.8L40.4 42.8C40.2948 42.7213 40.2061 42.6227 40.1391 42.5098C40.072 42.3969 40.0278 42.2718 40.0091 42.1418C39.9903 42.0118 39.9973 41.8794 40.0297 41.7521C40.0622 41.6248 40.1193 41.5052 40.198 41.4C40.2767 41.2948 40.3753 41.2061 40.4882 41.1391C40.6011 41.072 40.7262 41.0278 40.8562 41.0091C40.9862 40.9903 41.1186 40.9973 41.2459 41.0297C41.3732 41.0622 41.4928 41.1193 41.598 41.198L44.998 43.748L48.398 41.198C48.5711 41.0682 48.7816 40.998 48.998 40.998C49.2144 40.998 49.4249 41.0682 49.598 41.198L53.598 44.198C53.7855 44.3386 53.9176 44.5406 53.9713 44.7687C54.0251 44.9968 53.997 45.2365 53.892 45.446L45.892 61.446C45.724 61.786 45.378 62 45 62V62Z" fill="#263238"/>
<path d="M49 43C48.7348 43 48.4804 42.8946 48.2929 42.7071C48.1054 42.5196 48 42.2652 48 42V15C48 14.7348 48.1054 14.4804 48.2929 14.2929C48.4804 14.1054 48.7348 14 49 14C49.2652 14 49.5196 14.1054 49.7071 14.2929C49.8946 14.4804 50 14.7348 50 15V42C50 42.2652 49.8946 42.5196 49.7071 42.7071C49.5196 42.8946 49.2652 43 49 43ZM41 43C40.7348 43 40.4804 42.8946 40.2929 42.7071C40.1054 42.5196 40 42.2652 40 42V19C40 18.7348 40.1054 18.4804 40.2929 18.2929C40.4804 18.1054 40.7348 18 41 18C41.2652 18 41.5196 18.1054 41.7071 18.2929C41.8946 18.4804 42 18.7348 42 19V42C42 42.2652 41.8946 42.5196 41.7071 42.7071C41.5196 42.8946 41.2652 43 41 43Z" fill="#263238"/>
<path d="M41 16C41.5523 16 42 15.5523 42 15C42 14.4477 41.5523 14 41 14C40.4477 14 40 14.4477 40 15C40 15.5523 40.4477 16 41 16Z" fill="#263238"/>
<path d="M49 54H45C44.7348 54 44.4804 53.8946 44.2929 53.7071C44.1054 53.5196 44 53.2652 44 53C44 52.7348 44.1054 52.4804 44.2929 52.2929C44.4804 52.1054 44.7348 52 45 52H49C49.2652 52 49.5196 52.1054 49.7071 52.2929C49.8946 52.4804 50 52.7348 50 53C50 53.2652 49.8946 53.5196 49.7071 53.7071C49.5196 53.8946 49.2652 54 49 54ZM37 46C36.7348 46 36.4804 45.8946 36.2929 45.7071C36.1054 45.5196 36 45.2652 36 45V15C36 14.7348 36.1054 14.4804 36.2929 14.2929C36.4804 14.1054 36.7348 14 37 14C37.2652 14 37.5196 14.1054 37.7071 14.2929C37.8946 14.4804 38 14.7348 38 15V45C38 45.2652 37.8946 45.5196 37.7071 45.7071C37.5196 45.8946 37.2652 46 37 46ZM53 46C52.7348 46 52.4804 45.8946 52.2929 45.7071C52.1054 45.5196 52 45.2652 52 45V12H37C36.7348 12 36.4804 11.8946 36.2929 11.7071C36.1054 11.5196 36 11.2652 36 11C36 10.7348 36.1054 10.4804 36.2929 10.2929C36.4804 10.1054 36.7348 10 37 10H53C53.2652 10 53.5196 10.1054 53.7071 10.2929C53.8946 10.4804 54 10.7348 54 11V45C54 45.2652 53.8946 45.5196 53.7071 45.7071C53.5196 45.8946 53.2652 46 53 46Z" fill="#263238"/>
</svg>
