<svg width="64" height="64" viewBox="0 0 64 64" fill="none" xmlns="http://www.w3.org/2000/svg">
<path d="M7.03385 3.71693L46.9575 3.70216C50.2658 3.70339 58.1391 2.50831 60.2991 5.86216C61.6332 7.93355 60.3852 15.4585 60.4074 18.0123L60.7028 50.8197C60.736 54.5145 61.2529 55.504 58.5366 58.224C55.9643 60.7963 54.9034 60.3717 51.5988 60.3348L13.3957 59.9065C12.2683 59.8942 7.168 60.4074 6.23262 59.8265C2.17108 57.3083 3.04123 50.4788 3.01785 46.4628L3.02523 32.0431C3.02769 27.7785 0.470153 3.55324 7.62462 3.93847C9.40554 4.03693 9.39938 1.2677 7.62462 1.16924C2.45292 0.893545 0.516922 4.5477 0.286769 9.25539C-0.205539 19.2419 0.255999 29.3662 0.249846 39.3674C0.246153 43.9385 0.159999 48.5243 0.36923 53.0954C0.477538 55.4523 0.168615 59.3231 2.01108 61.2308C3.42277 62.6917 5.58031 62.5477 7.424 62.6092C12.5908 62.7815 17.7625 62.7249 22.9317 62.784L52.7778 63.1188C58.3114 63.1803 62.4738 63.168 63.3551 56.864C64.6597 47.5286 63.3354 37.1631 63.2517 27.7354L63.1212 13.1545C63.0966 10.3286 64.0074 5.96431 62.5145 3.39201C61.5138 1.66893 59.8929 1.53355 58.0295 1.30339C52.7902 0.652314 47.3846 0.93293 42.1169 0.935391L7.03385 0.947699C5.25169 0.94893 5.24923 3.71693 7.03385 3.71693Z" fill="#231F20"/>
<path d="M1.80431 18.7877H60.7262C62.5083 18.7877 62.5108 16.0185 60.7262 16.0185H1.80431C0.0221512 16.0185 0.0196895 18.7877 1.80431 18.7877ZM41.4966 35.0277L45.5557 37.6419C46.7655 38.4209 49.3378 39.5434 49.7366 41.0166L50.3729 39.4535L45.5385 42.7385C43.8228 44.1292 42.5477 45.3157 40.3274 45.8843C38.6018 46.3274 39.3329 48.9982 41.0634 48.5551C42.9514 48.0714 44.6178 47.2419 46.0997 45.9631C47.8892 44.4197 49.808 43.1545 51.7809 41.8437C52.2978 41.4991 52.5846 40.896 52.4172 40.2806C51.9274 38.4714 50.6622 37.6505 49.1557 36.6622L42.9058 32.6375C41.4043 31.6702 40.0135 34.0652 41.5077 35.0289L41.4966 35.0277ZM38.432 28.4751C33.3206 34.8135 29.9446 42.5514 26.1218 49.6972C25.2812 51.2689 27.6726 52.6683 28.5132 51.0954C32.1957 44.208 35.4622 36.5428 40.3902 30.4332C41.4978 29.0585 39.5532 27.0855 38.4209 28.464L38.432 28.4751ZM21.6074 32.816C20.3766 34.928 19.1705 36.5169 17.1668 37.9508C16.2191 38.6277 15.0314 39.3699 14.8037 40.6129C14.6006 41.7182 15.1729 42.3729 15.9828 42.976L21.9668 47.0745C23.3428 48.1822 25.3145 46.2339 23.936 45.1052L20.2646 42.3606C19.6886 41.9705 19.0191 41.6554 18.4837 41.2197C18.24 40.9674 17.9545 40.9157 17.6258 41.0646C18.0265 40.7154 18.4537 40.3978 18.9034 40.1145C21.1742 38.4972 22.5957 36.6068 24.0111 34.2006C24.9095 32.6572 22.5169 31.2615 21.6197 32.8025L21.6074 32.816ZM7.12861 10.8492L7.07569 10.6868L7.44492 9.33908L8.06277 9.15447L8.67323 9.5237L8.75323 9.74524C8.51446 9.03632 7.80061 8.57232 7.04984 8.77785C6.35815 8.96739 5.84369 9.76985 6.08246 10.4812C6.56492 11.9151 8.30277 12.48 9.40307 11.312C9.728 10.9674 9.92 10.4345 9.77231 9.96431C9.62954 9.54831 9.44984 9.19508 9.11384 8.90585C8.54769 8.41724 7.71077 8.34955 7.14461 8.90585C6.64492 9.40555 6.576 10.3729 7.14461 10.8751L7.12861 10.8492ZM12.6498 9.94216C12.6745 10.4911 12.8468 10.8899 13.2098 11.3059C13.6702 11.8351 14.7114 11.8523 15.1791 11.3059C15.3022 11.1409 15.4535 10.9785 15.5532 10.7889C15.808 10.2991 15.8277 9.49293 15.3366 9.11139C14.4234 8.40247 13.5114 8.40247 12.5982 9.11139C12.0074 9.57047 12.1157 10.5883 12.5982 11.0806C13.1815 11.664 13.952 11.5409 14.5674 11.0806L14.6806 10.992L14.0702 11.3612C14.0086 11.3329 13.9471 11.3329 13.888 11.3612L13.2775 10.992L13.3908 11.0806L13.1742 9.40308L13.2332 9.36001H15.2025L15.1077 9.2517L15.4769 9.86216L15.4646 9.95324C15.4277 9.20616 14.8542 8.56862 14.08 8.56862C13.3575 8.56862 12.6597 9.20247 12.6954 9.95324L12.6498 9.94216ZM19.0831 9.40062L18.9908 9.54585L19.488 9.04862L19.3354 9.12862H20.7335L20.4258 8.8997L20.7065 11.0745L20.8542 10.9194L18.4911 9.94093C18.6351 11.6948 20.4665 12.1908 21.7083 11.0855C22.4406 10.4332 22.0775 9.4117 21.4277 8.91078L21.3046 8.80862L21.8018 9.30585L21.7748 9.34278C21.4954 8.64985 20.8517 8.16124 20.0714 8.37539C19.4129 8.55631 18.8234 9.38093 19.104 10.0788C19.284 10.573 19.6119 10.9997 20.0431 11.3009L19.7625 9.12616H19.7194L20.4185 8.93662L20.4554 8.96124L21.0658 9.33047L21.0942 9.3957L21.2837 10.0948L21.2714 9.95324C21.1791 8.82462 19.7883 8.04185 18.9083 8.97478L18.7606 9.12985C18.096 9.83385 18.32 10.7668 19.0412 11.3046L19.3489 11.5335C19.7477 11.8289 20.3397 11.7452 20.7471 11.5335C21.0818 11.3588 21.2886 11.1274 21.4892 10.8123C22.4455 9.30216 20.0492 7.91139 19.0978 9.41416L19.0831 9.40062Z" fill="#231F20"/>
</svg>
