<svg width="64" height="64" viewBox="0 0 64 64" fill="none" xmlns="http://www.w3.org/2000/svg">
<path d="M35.4616 61.6059H28.6575C26.786 61.6059 25.2634 60.0837 25.2634 58.2129V51.4754C22.8546 50.6286 20.5863 49.3166 18.6413 47.645L12.7958 51.02C12.2821 51.3151 11.7002 51.4705 11.1079 51.4707C9.895 51.4707 8.767 50.8241 8.16413 49.7832L4.7595 43.8852C3.82738 42.2684 4.384 40.1915 6.00013 39.2552L11.8426 35.8855C11.6044 34.6244 11.4844 33.3439 11.4843 32.0605C11.4844 30.7771 11.6044 29.4966 11.8426 28.2355L6.00138 24.8667C4.38013 23.9275 3.82388 21.8472 4.76013 20.2287L8.1625 14.3375C8.76688 13.2941 9.895 12.6466 11.1066 12.6466C11.6995 12.6466 12.2838 12.8037 12.7963 13.101L18.6405 16.4692C20.5875 14.8001 22.856 13.4896 25.2623 12.6437V5.90625C25.2623 4.03525 26.7848 2.51312 28.6564 2.51312H35.4606C37.3324 2.51312 38.855 4.03525 38.855 5.90625V12.6437C41.2729 13.4929 43.5415 14.803 45.4779 16.4687L51.3229 13.1C51.8348 12.8037 52.4191 12.6469 53.0104 12.6469C54.222 12.6469 55.3489 13.295 55.9509 14.3381L59.3571 20.2279C60.2918 21.85 59.7346 23.9297 58.1161 24.8654L52.275 28.2347C52.5125 29.4872 52.6308 30.7722 52.6308 32.0597C52.6308 33.3582 52.5116 34.6422 52.2758 35.8851L58.1165 39.2536C58.896 39.7001 59.4565 40.4286 59.6915 41.3034C59.9288 42.1821 59.8103 43.0986 59.3573 43.8841L55.9531 49.7814C55.3498 50.8232 54.2223 51.4699 53.0101 51.4689C52.4181 51.4686 51.8363 51.3136 51.3226 51.0192L45.4758 47.6442C43.5316 49.3167 41.2633 50.6271 38.8533 51.4699V58.212C38.8531 60.0829 37.3304 61.605 35.4586 61.605L35.4616 61.6059ZM18.745 45.7784C18.9544 45.7782 19.1562 45.8566 19.3108 45.9979C21.3286 47.8414 23.7645 49.2504 26.3555 50.0725C26.5253 50.1264 26.6734 50.2329 26.7786 50.3766C26.8838 50.5203 26.9405 50.6938 26.9405 50.8719V58.2131C26.9405 59.1594 27.7108 59.9291 28.6575 59.9291H35.4618C36.4088 59.9291 37.179 59.1594 37.179 58.2131V50.8662C37.1791 50.688 37.2359 50.5143 37.3413 50.3705C37.4467 50.2267 37.5952 50.1203 37.7653 50.0666C40.3565 49.2495 42.7921 47.8416 44.8083 45.9984C44.9398 45.8781 45.1062 45.8029 45.2833 45.7835C45.4605 45.7642 45.6392 45.8018 45.7935 45.8909L52.1619 49.5667C52.421 49.7149 52.7143 49.7928 53.0128 49.7929C53.6286 49.7927 54.2003 49.4679 54.504 48.9419L57.9074 43.0461C58.1358 42.6499 58.1955 42.1861 58.0753 41.7409C57.956 41.2992 57.6743 40.9324 57.2821 40.7077L50.9149 37.0355C50.7602 36.9463 50.6381 36.81 50.5663 36.6466C50.4944 36.4831 50.4766 36.301 50.5154 36.1267C50.8071 34.8165 50.9551 33.448 50.9551 32.0597C50.9551 30.6842 50.807 29.3154 50.5151 27.991C50.4768 27.8169 50.4949 27.6352 50.5668 27.4721C50.6387 27.309 50.7606 27.1731 50.915 27.084L57.28 23.4131C58.0984 22.9402 58.38 21.8872 57.9071 21.0665L54.5 15.1772C54.196 14.6506 53.626 14.324 53.0116 14.324C52.7132 14.3242 52.42 14.4029 52.1616 14.5524L45.7919 18.2236C45.6375 18.3125 45.4589 18.35 45.2818 18.3306C45.1047 18.3112 44.9384 18.2359 44.807 18.1156C42.8011 16.2797 40.3654 14.8731 37.7628 14.0471C37.593 13.9932 37.4448 13.8867 37.3396 13.743C37.2345 13.5993 37.1778 13.4258 37.1778 13.2477V5.90625C37.1778 4.96 36.4075 4.19 35.4605 4.19H28.6575C27.7108 4.19 26.9405 4.96 26.9405 5.90625V13.2475C26.9405 13.4256 26.8838 13.5991 26.7786 13.7428C26.6734 13.8865 26.5253 13.993 26.3555 14.0469C23.7673 14.8681 21.331 16.2754 19.3098 18.1169C19.1783 18.2366 19.0122 18.3114 18.8355 18.3306C18.6587 18.3498 18.4804 18.3124 18.3264 18.2236L11.9579 14.5532C11.6997 14.4032 11.4064 14.3241 11.1078 14.324C10.4923 14.324 9.92025 14.6511 9.61525 15.1777L6.21175 21.0675C5.73675 21.8862 6.0205 22.9387 6.84088 23.414L13.2034 27.084C13.3578 27.1731 13.4798 27.309 13.5517 27.4721C13.6236 27.6352 13.6417 27.8169 13.6034 27.991C13.3092 29.3273 13.1607 30.6915 13.1606 32.0597C13.1608 33.428 13.3092 34.7922 13.6034 36.1285C13.6417 36.3026 13.6237 36.4843 13.5518 36.6474C13.4799 36.8105 13.3579 36.9464 13.2035 37.0355L6.8385 40.7065C6.02225 41.1792 5.74025 42.2295 6.21125 43.0465L9.615 48.943C9.9185 49.468 10.4904 49.793 11.107 49.793C11.4056 49.7929 11.6989 49.7148 11.9579 49.5662L18.3251 45.8912C18.4555 45.8155 18.6001 45.7787 18.7439 45.7787L18.745 45.7784ZM32.0613 42.2205C26.4541 42.2205 21.8925 37.6624 21.8925 32.0596C21.8925 26.4569 26.4543 21.8989 32.0613 21.8989C37.6665 21.8989 42.2266 26.457 42.2266 32.0596C42.2266 37.6622 37.6666 42.2205 32.0613 42.2205V42.2205ZM32.0613 23.5757C27.3788 23.5757 23.5695 27.3815 23.5695 32.0595C23.5695 36.7375 27.3789 40.5432 32.0613 40.5432C36.7418 40.5432 40.5496 36.7374 40.5496 32.0595C40.5496 27.3816 36.7419 23.5757 32.0613 23.5757V23.5757Z" fill="black"/>
</svg>
