<svg xmlns="http://www.w3.org/2000/svg" baseProfile="tiny" height="24" width="24" xmlns:v="https://vecta.io/nano"><path d="M8.567 23.695c-.146 0-.294-.023-.44-.068l-.136-.045C3.22 21.883.02 17.345.02 12.286A12 12 0 0 1 12 .305c6.608 0 11.982 5.375 11.982 11.98 0 5.11-3.242 9.66-8.066 11.327l-.13.038a1.51 1.51 0 0 1-.354.043 1.45 1.45 0 0 1-1.447-1.446V19.3c0-.688-.125-1.168-.373-1.426-.203-.21-.27-.517-.177-.796a.79.79 0 0 1 .618-.528c2.92-.482 4.342-1.956 4.342-4.504 0-1.2-.318-2.16-.95-2.88-.156-.18-.223-.426-.18-.66.175-.996.147-1.656.065-1.976-.34.046-.995.242-2.07 1a.79.79 0 0 1-.637.123c-.757-.174-1.625-.265-2.572-.27h-.104c-.942.005-1.81.097-2.575.272a.82.82 0 0 1-.633-.129c-1.133-.796-1.786-.97-2.066-1.006-.083.315-.114.98.064 1.988a.78.78 0 0 1-.18.655c-.632.725-.952 1.693-.952 2.882 0 2.548 1.42 4.022 4.34 4.504.29.047.527.25.62.53s.025.584-.18.797c-.18.188-.295.497-.345.917-.036.304-.247.562-.54.658-.026.008-.052.017-.08.024.1.028.214.08.303.153a.78.78 0 0 1 .29.611v1.945c.001.853-.65 1.502-1.448 1.502zM12 1.097C5.83 1.097.812 6.116.812 12.286a11.22 11.22 0 0 0 7.44 10.547l.12.04c.06.02.13.03.196.03.362 0 .656-.294.656-.655V20.25a7.22 7.22 0 0 1-1.424.168c-.405 0-.726-.057-.953-.167-.748-.358-1.13-.804-1.516-1.763-.18-.447-.476-.823-.907-1.15l-1.257-.952 1.558.245c.318.05.585.19.772.407.123.14.255.323.394.518.476.664 1.08 1.49 2.077 1.396.52-.054.954-.137 1.29-.244.067-.592.256-1.055.558-1.37-3.272-.536-5.002-2.365-5.002-5.282 0-1.386.386-2.53 1.146-3.402-.1-.607-.313-2.094.127-2.74l.092-.135.16-.03a1.19 1.19 0 0 1 .219-.019c.45 0 1.276.2 2.64 1.162.82-.19 1.745-.287 2.748-.292l.45-.062.001.067c.897.026 1.694.123 2.408.287 1.36-.96 2.195-1.16 2.657-1.16a1.22 1.22 0 0 1 .184.013l.17.025.098.142c.442.643.24 2.134.13 2.746.76.867 1.144 2.01 1.144 3.398 0 2.917-1.73 4.746-5.004 5.286.594.613.594 1.634.594 1.97v2.938a.66.66 0 0 0 .814.636l.077-.023a11.19 11.19 0 0 0 7.522-10.574c-.001-6.17-5.02-11.2-11.2-11.2z"/></svg>