<svg xmlns="http://www.w3.org/2000/svg" height="24" width="24" xmlns:v="https://vecta.io/nano"><path d="M23.978 23.52H16.8v-8.115c0-1.922-.623-1.922-.9-1.922-1.06 0-1.177 1.37-1.177 1.957v8.08H8.287V8.496h6.41c.78-.47 1.834-.732 3.006-.732.75 0 2.642.138 4.015 1.42 1.46 1.36 2.26 3.46 2.26 5.915v8.422zm-6.393-.776h5.618v-7.646c0-2.237-.716-4.137-2.015-5.348-1.172-1.093-2.83-1.21-3.486-1.21-1.313 0-2.436.356-3.076.978l-.656.638V9.27l-4.908.018v13.455h4.908V15.44c0-1.71.73-2.732 1.95-2.732 1.12 0 1.665.882 1.665 2.697v7.34zM7.19 23.52H.022V8.496H7.19V23.52zm-6.392-.776h5.617V9.27L.797 9.29v13.455zM3.605 7.65A3.59 3.59 0 0 1 .022 4.064 3.59 3.59 0 0 1 3.605.481a3.59 3.59 0 0 1 3.583 3.583 3.59 3.59 0 0 1-3.583 3.585zm0-6.393c-1.55 0-2.81 1.26-2.81 2.808s1.26 2.8 2.81 2.8 2.81-1.26 2.81-2.8-1.26-2.808-2.81-2.808z"/></svg>