<svg xmlns="http://www.w3.org/2000/svg" height="24" width="24" xmlns:v="https://vecta.io/nano"><path d="M8.794 21.137c-2.173 0-4.325-.602-6.225-1.738l-2.51-1.506 2.928.05.248.007a8.88 8.88 0 0 0 3.42-.751 5.04 5.04 0 0 1-2.534-2.897l-.462-1.372.02.004a5 5 0 0 1-.978-2.708l-.068-1.27.49.214c-.462-1.054-.766-2.65.236-4.478l.577-1.046.73.945a9.99 9.99 0 0 0 6.793 3.819c.004-2.376 1.813-4.83 4.837-4.83 1.19 0 2.358.45 3.24 1.245.98-.27 1.878-.817 1.89-.823l1.852-1.14-.7 2.06-.184.458 1.55-.757-.933 2.005c-.398.857-1.055 1.59-1.86 2.086.11 2.893-1.1 6.107-3.222 8.445-1.62 1.798-4.51 3.947-9.057 3.976l-.075.002zm-5.95-2.448l.11.066c1.78 1.067 3.8 1.632 5.836 1.632h.073c4.275-.028 6.985-2.043 8.507-3.73 2.038-2.257 3.193-5.37 3.018-8.128l-.016-.238.21-.114a4.13 4.13 0 0 0 1.748-1.864l.04-.09-.21.104-.606.23-1.228.402.822-.996a4.07 4.07 0 0 0 .717-1.284l.03-.1-.08.05c-.01.006-1.12.687-2.302.964l-.2.047-.148-.145c-.757-.748-1.803-1.178-2.87-1.178-2.56 0-4.088 2.078-4.088 4.088 0 .05.012.202.03.37l.042.44-.44-.03A10.75 10.75 0 0 1 4.074 5.05l-.032-.042-.025.046c-1.2 2.184-.208 3.988.273 4.663l.655.917-1.073-.343c-.127-.04-.252-.09-.374-.142l-.053-.023.003.058a4.27 4.27 0 0 0 1.67 3.156l1.466 1.126-1.774-.464.02.06c.44 1.314 1.506 2.336 2.847 2.736l.844.252-.767.433C5.76 18.6 3.79 18.698 3.235 18.698a6.66 6.66 0 0 1-.271-.005l-.12-.004z"/></svg>