<svg xmlns="http://www.w3.org/2000/svg" height="32" width="32" fill="#263238" xmlns:v="https://vecta.io/nano"><path d="M13.5 15a.5.5 0 0 1-.5-.5v-10A2.5 2.5 0 0 0 10.5 2h-2A2.5 2.5 0 0 0 6 4.5v8a.5.5 0 1 1-1 0v-8C5 2.57 6.57 1 8.5 1h2C12.43 1 14 2.57 14 4.5v10a.5.5 0 0 1-.5.5zm-8 8a.5.5 0 0 1-.5-.5v-8a.5.5 0 1 1 1 0v8a.5.5 0 0 1-.5.5z"/><path d="M13.5 23a.5.5 0 0 1-.5-.5V13H5.5a.5.5 0 1 1 0-1h8a.5.5 0 0 1 .5.5v10a.5.5 0 0 1-.5.5z"/><path d="M9.5 31a.5.5 0 0 1-.447-.276l-4-8a.5.5 0 1 1 .895-.447L9.5 29.382 12.7 23H7.5a.5.5 0 1 1 0-1h6c.173 0 .334.1.426.237a.5.5 0 0 1 .021.486l-4 8A.5.5 0 0 1 9.5 31zm6-17.5a.5.5 0 0 1-.5-.5V3.5A1.5 1.5 0 0 0 13.5 2H9a.5.5 0 1 1 0-1h4.5A2.5 2.5 0 0 1 16 3.5V13a.5.5 0 0 1-.5.5z"/><path d="M28.5 31h-6a.5.5 0 1 1 0-1h6a.5.5 0 1 1 0 1zm-13 0h-6a.5.5 0 1 1 0-1h6a.5.5 0 1 1 0 1z"/><circle cx="30.5" cy="30.5" r=".5"/><circle cx="17.5" cy="30.5" r=".5"/><path d="M26.5 8a.5.5 0 0 1-.5-.5v-3A2.5 2.5 0 0 0 23.5 2h-2A2.5 2.5 0 0 0 19 4.5v1a.5.5 0 1 1-1 0v-1C18 2.57 19.57 1 21.5 1h2C25.43 1 27 2.57 27 4.5v3a.5.5 0 0 1-.5.5zm-4 23a.5.5 0 0 1-.447-.276l-4-8a.5.5 0 1 1 .895-.447l3.553 7.105 3.366-6.732-1.367-1.025-1.7 1.275a.5.5 0 0 1-.6 0l-2-1.5a.5.5 0 1 1 .599-.801l1.7 1.275 1.7-1.275a.5.5 0 0 1 .6 0l2 1.5a.5.5 0 0 1 .147.624l-4 8c-.084.17-.257.277-.446.277z"/><path d="M24.5 21.5a.5.5 0 0 1-.5-.5V7.5a.5.5 0 1 1 1 0V21a.5.5 0 0 1-.5.5zm-4 0a.5.5 0 0 1-.5-.5V9.5a.5.5 0 1 1 1 0V21a.5.5 0 0 1-.5.5z"/><circle cx="20.5" cy="7.5" r=".5"/><path d="M24.5 27h-2a.5.5 0 1 1 0-1h2a.5.5 0 1 1 0 1zm-6-4a.5.5 0 0 1-.5-.5v-15a.5.5 0 1 1 1 0v15a.5.5 0 0 1-.5.5zm8 0a.5.5 0 0 1-.5-.5V6h-7.5a.5.5 0 1 1 0-1h8a.5.5 0 0 1 .5.5v17a.5.5 0 0 1-.5.5z"/></svg>