<svg xmlns="http://www.w3.org/2000/svg" viewBox="0 0 52 52" fill="#231f20" xmlns:v="https://vecta.io/nano"><path d="M5.715 3.02l32.438-.012c2.688.001 9.085-.97 10.84 1.755 1.084 1.683.07 7.797.088 9.872l.24 26.656c.027 3.002.447 3.806-1.76 6.016-2.09 2.09-2.952 1.745-5.637 1.715l-31.04-.348c-.916-.01-5.06.407-5.82-.065-3.3-2.046-2.593-7.595-2.612-10.858l.006-11.716C2.46 22.57.382 2.887 6.195 3.2c1.447.08 1.442-2.17 0-2.25C1.993.726.42 3.695.233 7.52c-.4 8.114-.025 16.34-.03 24.466C.2 35.7.13 39.426.3 43.14c.088 1.915-.163 5.06 1.334 6.61 1.147 1.187 2.9 1.07 4.398 1.12 4.198.14 8.4.094 12.6.142l24.25.272c4.496.05 7.878.04 8.594-5.082 1.06-7.585-.016-16.007-.084-23.667l-.106-11.847c-.02-2.296.72-5.842-.493-7.932-.813-1.4-2.13-1.51-3.644-1.697C42.892.53 38.5.758 34.22.76L5.715.77c-1.448.001-1.45 2.25 0 2.25h0z"/><path d="M1.466 15.265H49.34c1.448 0 1.45-2.25 0-2.25H1.466c-1.448 0-1.45 2.25 0 2.25h0zm32.25 13.195l3.298 2.124c.983.633 3.073 1.545 3.397 2.742l.517-1.27L37 34.725c-1.394 1.13-2.43 2.094-4.234 2.556-1.402.36-.808 2.53.598 2.17 1.534-.393 2.888-1.067 4.092-2.106 1.454-1.254 3.013-2.282 4.616-3.347.42-.28.653-.77.517-1.27-.398-1.47-1.426-2.137-2.65-2.94l-5.078-3.27c-1.22-.786-2.35 1.16-1.136 1.943h0zm-2.49-5.324c-4.153 5.15-6.896 11.437-10.002 17.243-.683 1.277 1.26 2.414 1.943 1.136 2.992-5.596 5.646-11.824 9.65-16.788.9-1.117-.68-2.72-1.6-1.6h0zm-13.67 3.527c-1 1.716-1.98 3.007-3.608 4.172-.77.55-1.735 1.153-1.92 2.163-.165.898.3 1.43.958 1.92l4.862 3.33c1.118.9 2.72-.683 1.6-1.6l-2.983-2.23c-.468-.317-1.012-.573-1.447-.927-.198-.205-.43-.247-.697-.126a8.37 8.37 0 0 1 1.038-.772c1.845-1.314 3-2.85 4.15-4.805.73-1.254-1.214-2.388-1.943-1.136h0zM5.792 8.815l-.043-.132.3-1.095.502-.15.496.3.065.18c-.194-.576-.774-.953-1.384-.786-.562.154-.98.806-.786 1.384.392 1.165 1.804 1.624 2.698.675.264-.28.42-.713.3-1.095-.116-.338-.262-.625-.535-.86-.46-.397-1.14-.452-1.6 0-.406.406-.462 1.192 0 1.6h0zm4.486-.737c.02.446.16.77.455 1.108.374.43 1.22.444 1.6 0 .1-.134.223-.266.304-.42.207-.398.223-1.053-.176-1.363-.742-.576-1.483-.576-2.225 0-.48.373-.392 1.2 0 1.6.474.474 1.1.374 1.6 0l.092-.072-.496.3c-.05-.023-.1-.023-.148 0l-.496-.3.092.072-.176-1.363.048-.035h1.6l-.077-.088.3.496-.01.074c-.03-.607-.496-1.125-1.125-1.125-.587 0-1.154.515-1.125 1.125h0zm5.227-.44l-.075.118.404-.404-.124.065h1.136l-.25-.186.228 1.767.12-.126-1.92-.795c.117 1.425 1.605 1.828 2.614.93.595-.53.3-1.36-.228-1.767l-.1-.083.404.404-.022.03c-.227-.563-.75-.96-1.384-.786-.535.147-1.014.817-.786 1.384a2.08 2.08 0 0 0 .763.993l-.228-1.767h-.035l.568-.154.03.02.496.3.023.053.154.568-.01-.115c-.075-.917-1.205-1.553-1.92-.795l-.12.126c-.54.572-.358 1.33.228 1.767l.25.186c.324.24.805.172 1.136 0 .272-.142.44-.33.603-.586.777-1.227-1.17-2.357-1.943-1.136h0z"/></svg>